<svg width="512" height="385" fill="none" xmlns="http://www.w3.org/2000/svg"><path fill="#282828" d="M101 86h311v215H101z"/><path fill-rule="evenodd" clip-rule="evenodd" d="M437.333.667H74.667C33.493.667 0 34.16 0 75.333V310c0 41.173 33.493 74.667 74.667 74.667h362.668C478.507 384.667 512 351.173 512 310V75.333C512 34.16 478.507.667 437.333.667zm-58.965 276.074a10.68 10.68 0 005.632-9.408V118.001c0-3.947-2.155-7.552-5.632-9.408a10.626 10.626 0 00-10.944.533L320 140.742v-22.741c0-5.888-4.779-10.667-10.667-10.667H160c-31.104 0-32 76.608-32 85.333 0 8.725.896 85.333 32 85.333h149.333c5.888 0 10.667-4.779 10.667-10.667v-22.741l47.424 31.616a10.56 10.56 0 005.909 1.792c1.728 0 3.456-.406 5.035-1.259z" fill="#fff"/></svg>