<svg width="512" height="385" viewBox="0 0 512 385" fill="none" xmlns="http://www.w3.org/2000/svg">
<rect x="101" y="86" width="311" height="215" fill="#282828"/>
<path fill-rule="evenodd" clip-rule="evenodd" d="M437.333 0.666992H74.667C33.493 0.666992 0 34.16 0 75.333V310C0 351.173 33.493 384.667 74.667 384.667H106.667H249.196H437.335C478.507 384.667 512 351.173 512 310V75.333C512 34.16 478.507 0.666992 437.333 0.666992ZM378.368 276.741C381.824 274.885 384 271.28 384 267.333V118.001C384 114.054 381.845 110.449 378.368 108.593C374.933 106.737 370.688 106.929 367.424 109.126L320 140.742V118.001C320 112.113 315.221 107.334 309.333 107.334H160C128.896 107.334 128 183.942 128 192.667C128 201.392 128.896 278 160 278H309.333C315.221 278 320 273.221 320 267.333V244.592L367.424 276.208C369.194 277.403 371.264 278 373.333 278C375.061 278 376.789 277.594 378.368 276.741Z" fill="white"/>
</svg>
